<svg xmlns:rdf="http://www.w3.org/1999/02/22-rdf-syntax-ns#" xmlns="http://www.w3.org/2000/svg" y="0px" xml:space="preserve" height="134.65" viewBox="0 0 134.65 134.652" width="134.65" version="1.1" enable-background="new 0 0 134.65 181.771" x="0px" xmlns:cc="http://creativecommons.org/ns#" xmlns:dc="http://purl.org/dc/elements/1.1/"><metadata><rdf:RDF><cc:Work rdf:about=""><dc:format>image/svg+xml</dc:format><dc:type rdf:resource="http://purl.org/dc/dcmitype/StillImage"/><dc:title/></cc:Work></rdf:RDF></metadata><defs>
</defs>
<g transform="translate(0,-2.1666008e-6)" fill="#ec1c2e">
		<path d="m67.321,91.382c13.289,0,24.061-10.77,24.061-24.056,0-13.291-10.771-24.061-24.061-24.061-13.291,0-24.067,10.77-24.067,24.061-0.001,13.286,10.776,24.056,24.067,24.056z"/>
		<path d="M67.321,67.326"/>
		<path d="m39.539,91.382c-13.294,0-24.068-10.77-24.068-24.056,0-13.291,10.774-24.07,24.068-24.07v48.126z"/>
		<path d="M95.102,117.93v-22.835l22.842,0.015c0,12.612-10.23,22.817-22.842,22.817z"/>
		<path d="m39.539,16.696v22.86l-22.872,0.002c0-12.625,10.242-22.862,22.872-22.862"/>
		<path d="M39.539,117.94v-22.845l-22.864,0.015c-0.001,12.612,10.231,22.831,22.864,22.831z"/>
		<path d="m122.9,87.998-0.015-41.347c7.048,4.196,11.766,11.879,11.766,20.675,0,8.789-4.718,16.468-11.751,20.672z"/>
		<path d="m46.641,11.748,41.35,0.005c-4.195-7.043-11.871-11.753-20.667-11.753-8.794,0-16.486,4.71-20.683,11.748z"/>
		<path d="m87.691,122.9-41.359-0.005c4.199,7.043,11.881,11.761,20.677,11.761s16.478-4.717,20.682-11.756z"/>
		<path d="m91.372,95.109c0,13.29-10.762,24.058-24.051,24.058-13.291,0-24.07-10.768-24.07-24.058h48.121z"/>
		<path d="m95.102,91.382c13.29,0,24.072-10.77,24.072-24.056,0-13.291-10.782-24.07-24.072-24.07v48.126z"/>
		<path d="m91.372,39.582c0-13.283-10.762-24.056-24.051-24.056-13.291,0-24.07,10.772-24.07,24.056h48.121z"/>
		<path d="m11.746,87.998,0.01-41.347c-7.048,4.197-11.756,11.879-11.756,20.675,0,8.789,4.708,16.468,11.746,20.672z"/>
		<path d="M117.94,39.567,95.102,39.555v-22.837c12.612,0,22.842,10.224,22.842,22.849"/>
	</g>
</svg>
